<?xml version="1.0" encoding="utf-8"?>
<!-- Generator: Adobe Illustrator 15.0.0, SVG Export Plug-In . SVG Version: 6.00 Build 0)  -->
<!DOCTYPE svg PUBLIC "-//W3C//DTD SVG 1.1//EN" "http://www.w3.org/Graphics/SVG/1.1/DTD/svg11.dtd">
<svg version="1.1" xmlns="http://www.w3.org/2000/svg" xmlns:xlink="http://www.w3.org/1999/xlink" x="0px" y="0px" width="325px"
	 height="257.5px" viewBox="129.5 102.5 325 257.5" enable-background="new 129.5 102.5 325 257.5" xml:space="preserve">
<g id="Calque_4">
</g>
<g id="Calque_3">
	<rect x="196.167" y="120.5" fill="#709ED0" stroke="#000000" width="196.834" height="216"/>
	<text transform="matrix(1 0 0 1 240.8337 147.0732)" fill="#231F20" font-family="'ArialMT'" font-size="11">ChannelMergerNode</text>
	<polygon points="410.009,235.233 426.849,241.067 410.009,246.567 	"/>
	<line fill="none" stroke="#000000" stroke-miterlimit="10" x1="341.792" y1="241.32" x2="410.009" y2="241.32"/>
</g>
<g id="Calque_2">
	<line fill="none" stroke="#000000" x1="341.5" y1="181.5" x2="167.834" y2="181.5"/>
	<line fill="none" stroke="#000000" x1="341.5" y1="205.5" x2="167.834" y2="205.5"/>
	<line fill="none" stroke="#000000" x1="341.5" y1="229.5" x2="167.834" y2="229.5"/>
	<line fill="none" stroke="#000000" x1="341.5" y1="251.5" x2="167.834" y2="251.5"/>
	<line fill="none" stroke="#000000" x1="341.5" y1="275.5" x2="167.834" y2="275.5"/>
	<line fill="none" stroke="#000000" x1="341.5" y1="299.5" x2="167.834" y2="299.5"/>
	<line fill="none" stroke="#000000" x1="341.792" y1="299.984" x2="341.792" y2="180.979"/>
</g>
<g id="Calque_1">
	<g transform="translate(0.5,0.5)">
		<rect x="284" y="173" pointer-events="none" fill="#FFFFFF" stroke="#000000" width="24" height="16"/>
		<g transform="translate(293,183)">
			<text transform="matrix(1 0 0 1 0.7751 1)" font-family="'Helvetica'" font-size="8">L</text>
		</g>
		<rect x="284" y="196" pointer-events="none" fill="#FFFFFF" stroke="#000000" width="24" height="16"/>
		<g transform="translate(293,206)">
			<text transform="matrix(1 0 0 1 0.1111 1)" font-family="'Helvetica'" font-size="8">R</text>
		</g>
		<rect x="284" y="220" pointer-events="none" fill="#FFFFFF" stroke="#000000" width="24" height="16"/>
		<g transform="translate(290,230)">
			<text transform="matrix(1 0 0 1 1.1072 1)" font-family="'Helvetica'" font-size="8">SL</text>
		</g>
		<rect x="284" y="243" pointer-events="none" fill="#FFFFFF" stroke="#000000" width="24" height="16"/>
		<g transform="translate(289,253)">
			<text transform="matrix(1 0 0 1 0.4431 1)" font-family="'Helvetica'" font-size="8">SR</text>
		</g>
		<rect x="284" y="267" pointer-events="none" fill="#FFFFFF" stroke="#000000" width="24" height="16"/>
		<g transform="translate(293,277)">
			<text transform="matrix(1 0 0 1 0.1111 1)" font-family="'Helvetica'" font-size="8">C</text>
		</g>
		<rect x="284" y="291" pointer-events="none" fill="#FFFFFF" stroke="#000000" width="24" height="16"/>
		<g transform="translate(287,301)">
			<text transform="matrix(1 0 0 1 1.6638 1)" font-family="'Helvetica'" font-size="8">LFE</text>
		</g>
	</g>
</g>
</svg>
